<?xml version="1.0" encoding="UTF-8" standalone="no"?>
<!DOCTYPE svg PUBLIC "-//W3C//DTD SVG 1.1//EN"
 "http://www.w3.org/Graphics/SVG/1.1/DTD/svg11.dtd">
<!-- Generated by graphviz version 2.38.0 (20140413.2041)
 -->
<!-- Title: G Pages: 1 -->
<svg width="479pt" height="389pt"
 viewBox="0.00 0.00 479.42 389.00" xmlns="http://www.w3.org/2000/svg" xmlns:xlink="http://www.w3.org/1999/xlink">
<g id="graph0" class="graph" transform="scale(1 1) rotate(0) translate(4 385)">
<title>G</title>
<polygon fill="white" stroke="none" points="-4,4 -4,-385 475.424,-385 475.424,4 -4,4"/>
<g id="clust1" class="cluster"><title>cluster_Global</title>
<path fill="none" stroke="gray" d="M234.2,-8C234.2,-8 451.424,-8 451.424,-8 457.424,-8 463.424,-14 463.424,-20 463.424,-20 463.424,-361 463.424,-361 463.424,-367 457.424,-373 451.424,-373 451.424,-373 234.2,-373 234.2,-373 228.2,-373 222.2,-367 222.2,-361 222.2,-361 222.2,-20 222.2,-20 222.2,-14 228.2,-8 234.2,-8"/>
<text text-anchor="middle" x="342.812" y="-360.2" font-family="Times,serif" font-size="11.00" fill="gray">Global</text>
</g>
<g id="clust2" class="cluster"><title>cluster_\smtech</title>
<path fill="none" stroke="gray" d="M242.2,-16C242.2,-16 443.424,-16 443.424,-16 449.424,-16 455.424,-22 455.424,-28 455.424,-28 455.424,-334 455.424,-334 455.424,-340 449.424,-346 443.424,-346 443.424,-346 242.2,-346 242.2,-346 236.2,-346 230.2,-340 230.2,-334 230.2,-334 230.2,-28 230.2,-28 230.2,-22 236.2,-16 242.2,-16"/>
<text text-anchor="middle" x="342.812" y="-333.2" font-family="Times,serif" font-size="11.00" fill="gray">smtech</text>
</g>
<g id="clust3" class="cluster"><title>cluster_\smtech\LTI</title>
<path fill="none" stroke="gray" d="M250.2,-24C250.2,-24 435.424,-24 435.424,-24 441.424,-24 447.424,-30 447.424,-36 447.424,-36 447.424,-307 447.424,-307 447.424,-313 441.424,-319 435.424,-319 435.424,-319 250.2,-319 250.2,-319 244.2,-319 238.2,-313 238.2,-307 238.2,-307 238.2,-36 238.2,-36 238.2,-30 244.2,-24 250.2,-24"/>
<text text-anchor="middle" x="342.812" y="-306.2" font-family="Times,serif" font-size="11.00" fill="gray">LTI</text>
</g>
<g id="clust4" class="cluster"><title>cluster_\smtech\LTI\Configuration</title>
<path fill="none" stroke="gray" d="M258.2,-32C258.2,-32 427.424,-32 427.424,-32 433.424,-32 439.424,-38 439.424,-44 439.424,-44 439.424,-280 439.424,-280 439.424,-286 433.424,-292 427.424,-292 427.424,-292 258.2,-292 258.2,-292 252.2,-292 246.2,-286 246.2,-280 246.2,-280 246.2,-44 246.2,-44 246.2,-38 252.2,-32 258.2,-32"/>
<text text-anchor="middle" x="342.812" y="-279.2" font-family="Times,serif" font-size="11.00" fill="gray">Configuration</text>
</g>
<g id="clust5" class="cluster"><title>cluster_\smtech\LTI\Configuration\Exception</title>
<path fill="none" stroke="gray" d="M266.2,-194C266.2,-194 419.424,-194 419.424,-194 425.424,-194 431.424,-200 431.424,-206 431.424,-206 431.424,-253 431.424,-253 431.424,-259 425.424,-265 419.424,-265 419.424,-265 266.2,-265 266.2,-265 260.2,-265 254.2,-259 254.2,-253 254.2,-253 254.2,-206 254.2,-206 254.2,-200 260.2,-194 266.2,-194"/>
<text text-anchor="middle" x="342.812" y="-252.2" font-family="Times,serif" font-size="11.00" fill="gray">Exception</text>
</g>
<!-- \\smtech\\LTI\\Configuration\\Exception\\ConfigurationException -->
<g id="node1" class="node"><title>\\smtech\\LTI\\Configuration\\Exception\\ConfigurationException</title>
<polygon fill="none" stroke="black" points="423.536,-238 262.088,-238 262.088,-202 423.536,-202 423.536,-238"/>
<text text-anchor="middle" x="342.812" y="-216.7" font-family="Courier,monospace" font-size="11.00">ConfigurationException</text>
</g>
<!-- \\Exception -->
<g id="node6" class="node"><title>\\Exception</title>
<ellipse fill="none" stroke="black" cx="95.1" cy="-220" rx="48.3341" ry="18"/>
<text text-anchor="middle" x="95.1" y="-215.8" font-family="Times,serif" font-size="14.00" fill="gray">\Exception</text>
</g>
<!-- \\smtech\\LTI\\Configuration\\Exception\\ConfigurationException&#45;&gt;\\Exception -->
<g id="edge3" class="edge"><title>\\smtech\\LTI\\Configuration\\Exception\\ConfigurationException&#45;&gt;\\Exception</title>
<path fill="none" stroke="black" d="M262.036,-220C226.758,-220 186.054,-220 153.788,-220"/>
<polygon fill="none" stroke="black" points="153.627,-216.5 143.627,-220 153.627,-223.5 153.627,-216.5"/>
</g>
<!-- \\smtech\\LTI\\Configuration\\Option -->
<g id="node2" class="node"><title>\\smtech\\LTI\\Configuration\\Option</title>
<polygon fill="none" stroke="black" points="370.42,-184 315.204,-184 315.204,-148 370.42,-148 370.42,-184"/>
<text text-anchor="middle" x="342.812" y="-162.7" font-family="Courier,monospace" font-size="11.00">Option</text>
</g>
<!-- \\MyCLabs\\Enum\\Enum -->
<g id="node5" class="node"><title>\\MyCLabs\\Enum\\Enum</title>
<ellipse fill="none" stroke="black" cx="95.1" cy="-139" rx="95.2" ry="18"/>
<text text-anchor="middle" x="95.1" y="-134.8" font-family="Times,serif" font-size="14.00" fill="gray">\MyCLabs\Enum\Enum</text>
</g>
<!-- \\smtech\\LTI\\Configuration\\Option&#45;&gt;\\MyCLabs\\Enum\\Enum -->
<g id="edge1" class="edge"><title>\\smtech\\LTI\\Configuration\\Option&#45;&gt;\\MyCLabs\\Enum\\Enum</title>
<path fill="none" stroke="black" d="M315.049,-163.059C284.579,-159.711 233.143,-154.059 187.78,-149.074"/>
<polygon fill="none" stroke="black" points="187.926,-145.569 177.603,-147.956 187.161,-152.527 187.926,-145.569"/>
</g>
<!-- \\smtech\\LTI\\Configuration\\LaunchPrivacy -->
<g id="node3" class="node"><title>\\smtech\\LTI\\Configuration\\LaunchPrivacy</title>
<polygon fill="none" stroke="black" points="393.626,-130 291.998,-130 291.998,-94 393.626,-94 393.626,-130"/>
<text text-anchor="middle" x="342.812" y="-108.7" font-family="Courier,monospace" font-size="11.00">LaunchPrivacy</text>
</g>
<!-- \\smtech\\LTI\\Configuration\\LaunchPrivacy&#45;&gt;\\MyCLabs\\Enum\\Enum -->
<g id="edge2" class="edge"><title>\\smtech\\LTI\\Configuration\\LaunchPrivacy&#45;&gt;\\MyCLabs\\Enum\\Enum</title>
<path fill="none" stroke="black" d="M291.792,-117.496C262.036,-120.766 223.357,-125.016 188.252,-128.874"/>
<polygon fill="none" stroke="black" points="187.53,-125.432 177.972,-130.003 188.295,-132.39 187.53,-125.432"/>
</g>
<!-- \\smtech\\LTI\\Configuration\\Generator -->
<g id="node4" class="node"><title>\\smtech\\LTI\\Configuration\\Generator</title>
<polygon fill="none" stroke="black" points="380.723,-76 304.901,-76 304.901,-40 380.723,-40 380.723,-76"/>
<text text-anchor="middle" x="342.812" y="-54.7" font-family="Courier,monospace" font-size="11.00">Generator</text>
</g>
</g>
</svg>
